<svg width="150" height="44" viewBox="0 0 150 44" fill="none" xmlns="http://www.w3.org/2000/svg">
<path d="M149.167 38.6692C149.167 40.9785 147.257 42.8491 144.895 42.8491H5.1104C2.74962 42.8491 0.833374 40.9785 0.833374 38.6692V5.33625C0.833374 3.02805 2.74962 1.15094 5.1104 1.15094H144.894C147.257 1.15094 149.166 3.02805 149.166 5.33625L149.167 38.6692Z" fill="white"/>
<path d="M33.4756 21.766C33.4434 18.2744 36.4078 16.5758 36.5434 16.4967C34.8645 14.1101 32.2623 13.784 31.3478 13.758C29.1623 13.5338 27.0423 15.0331 25.9289 15.0331C24.7934 15.0331 23.0789 13.7797 21.2311 13.8165C18.8534 13.8523 16.6289 15.1945 15.4089 17.2788C12.8911 21.5288 14.7689 27.7742 17.1811 31.2094C18.3878 32.8918 19.7978 34.7703 21.6434 34.7043C23.4489 34.6317 24.1234 33.5819 26.3023 33.5819C28.4611 33.5819 29.0945 34.7043 30.9767 34.662C32.9145 34.6317 34.1345 32.972 35.2989 31.2744C36.6934 29.3461 37.2534 27.447 37.2756 27.3495C37.23 27.3343 33.5123 25.9509 33.4756 21.766Z" fill="black"/>
<path d="M29.92 11.4982C30.8911 10.3141 31.5556 8.70317 31.3711 7.06842C29.9656 7.12909 28.2078 8.01634 27.1956 9.17442C26.3 10.1949 25.5 11.8676 25.7067 13.4406C27.2856 13.5554 28.9067 12.6638 29.92 11.4982Z" fill="black"/>
<path d="M54.5 11.1764C54.5 12.4515 54.1078 13.4113 53.3245 14.0559C52.5989 14.6507 51.5678 14.9486 50.2323 14.9486C49.57 14.9486 49.0034 14.9204 48.5289 14.8641V7.89718C49.1478 7.79968 49.8145 7.74985 50.5345 7.74985C51.8067 7.74985 52.7656 8.0196 53.4123 8.5591C54.1367 9.16901 54.5 10.0411 54.5 11.1764ZM53.2723 11.2078C53.2723 10.3813 53.0478 9.74751 52.5989 9.30551C52.15 8.8646 51.4945 8.6436 50.6312 8.6436C50.2645 8.6436 49.9523 8.66743 49.6934 8.71726V14.0137C49.8367 14.0353 50.0989 14.0451 50.48 14.0451C51.3712 14.0451 52.0589 13.8035 52.5434 13.3203C53.0278 12.8372 53.2723 12.133 53.2723 11.2078Z" fill="black"/>
<path d="M61.01 12.2901C61.01 13.0755 60.78 13.719 60.32 14.2238C59.8378 14.7428 59.1989 15.0017 58.4011 15.0017C57.6322 15.0017 57.02 14.7536 56.5633 14.2553C56.1078 13.758 55.88 13.1308 55.88 12.3746C55.88 11.5838 56.1144 10.9348 56.5856 10.4311C57.0567 9.92734 57.69 9.67493 58.4878 9.67493C59.2567 9.67493 59.8745 9.92301 60.3422 10.4203C60.7867 10.9034 61.01 11.5274 61.01 12.2901ZM59.8022 12.3269C59.8022 11.8557 59.6978 11.4516 59.49 11.1147C59.2456 10.7073 58.8978 10.5037 58.4456 10.5037C57.9778 10.5037 57.6222 10.7073 57.3778 11.1147C57.1689 11.4516 57.0656 11.8622 57.0656 12.3475C57.0656 12.8188 57.17 13.2228 57.3778 13.5598C57.63 13.9671 57.9811 14.1708 58.4345 14.1708C58.8789 14.1708 59.2278 13.9638 59.4789 13.5489C59.6945 13.2055 59.8022 12.7982 59.8022 12.3269Z" fill="black"/>
<path d="M69.7389 9.77893L68.1 14.8858H67.0334L66.3545 12.6682C66.1822 12.1146 66.0422 11.5643 65.9334 11.0183H65.9122C65.8111 11.5794 65.6711 12.1287 65.4911 12.6682L64.77 14.8858H63.6911L62.15 9.77893H63.3467L63.9389 12.2067C64.0822 12.7808 64.2 13.3279 64.2945 13.8458H64.3156C64.4022 13.4189 64.5456 12.8751 64.7478 12.2175L65.4911 9.78001H66.44L67.1522 12.1655C67.3245 12.7473 67.4645 13.3073 67.5722 13.8468H67.6045C67.6834 13.3214 67.8022 12.7613 67.96 12.1655L68.5956 9.78001H69.7389V9.77893Z" fill="black"/>
<path d="M75.7755 14.8858H74.6111V11.9608C74.6111 11.0594 74.26 10.6088 73.5556 10.6088C73.21 10.6088 72.9311 10.7323 72.7144 10.9804C72.5 11.2284 72.3911 11.5209 72.3911 11.8557V14.8847H71.2267V11.2382C71.2267 10.7897 71.2122 10.3033 71.1844 9.77678H72.2078L72.2622 10.5752H72.2944C72.43 10.3271 72.6322 10.1224 72.8978 9.95878C73.2133 9.76811 73.5667 9.67169 73.9533 9.67169C74.4422 9.67169 74.8489 9.82553 75.1722 10.1343C75.5744 10.5124 75.7755 11.0768 75.7755 11.8264V14.8858Z" fill="black"/>
<path d="M78.9867 14.8858H77.8234V7.43567H78.9867V14.8858Z" fill="black"/>
<path d="M85.8423 12.2901C85.8423 13.0755 85.6123 13.719 85.1523 14.2238C84.6701 14.7428 84.0301 15.0017 83.2334 15.0017C82.4634 15.0017 81.8512 14.7536 81.3956 14.2553C80.9401 13.758 80.7123 13.1308 80.7123 12.3746C80.7123 11.5838 80.9467 10.9348 81.4178 10.4311C81.8889 9.92734 82.5223 9.67493 83.3189 9.67493C84.0889 9.67493 84.7056 9.92301 85.1745 10.4203C85.6189 10.9034 85.8423 11.5274 85.8423 12.2901ZM84.6334 12.3269C84.6334 11.8557 84.5289 11.4516 84.3212 11.1147C84.0778 10.7073 83.7289 10.5037 83.2778 10.5037C82.8089 10.5037 82.4534 10.7073 82.2101 11.1147C82.0012 11.4516 81.8978 11.8622 81.8978 12.3475C81.8978 12.8188 82.0023 13.2228 82.2101 13.5598C82.4623 13.9671 82.8134 14.1708 83.2667 14.1708C83.7112 14.1708 84.0589 13.9638 84.3101 13.5489C84.5267 13.2055 84.6334 12.7982 84.6334 12.3269Z" fill="black"/>
<path d="M91.4779 14.8858H90.4323L90.3456 14.2975H90.3134C89.9556 14.7666 89.4456 15.0017 88.7834 15.0017C88.289 15.0017 87.889 14.8468 87.5879 14.5391C87.3145 14.2596 87.1779 13.9118 87.1779 13.4991C87.1779 12.8751 87.4445 12.3995 87.9812 12.0702C88.5167 11.7408 89.2701 11.5794 90.2401 11.587V11.4917C90.2401 10.8189 89.8779 10.4831 89.1523 10.4831C88.6356 10.4831 88.1801 10.6098 87.7867 10.8612L87.5501 10.1158C88.0367 9.82226 88.6379 9.67493 89.3467 9.67493C90.7156 9.67493 91.4023 10.3791 91.4023 11.7874V13.6681C91.4023 14.1783 91.4279 14.5846 91.4779 14.8858ZM90.269 13.1308V12.3432C88.9845 12.3215 88.3423 12.6649 88.3423 13.3723C88.3423 13.6388 88.4156 13.8382 88.5656 13.9714C88.7156 14.1047 88.9067 14.1708 89.1345 14.1708C89.3901 14.1708 89.629 14.0917 89.8467 13.9346C90.0656 13.7764 90.2001 13.576 90.2501 13.3301C90.2623 13.2748 90.269 13.2077 90.269 13.1308Z" fill="black"/>
<path d="M98.0945 14.8858H97.0611L97.0067 14.0657H96.9745C96.6445 14.6897 96.0823 15.0017 95.2923 15.0017C94.6611 15.0017 94.1356 14.7601 93.7189 14.2769C93.3023 13.7938 93.0945 13.1665 93.0945 12.3963C93.0945 11.5697 93.32 10.9002 93.7734 10.3888C94.2123 9.91217 94.75 9.67384 95.39 9.67384C96.0934 9.67384 96.5856 9.90459 96.8656 10.3672H96.8878V7.43567H98.0534V13.5099C98.0534 14.0072 98.0667 14.4654 98.0945 14.8858ZM96.8878 12.7321V11.8806C96.8878 11.7333 96.8767 11.6141 96.8556 11.5231C96.79 11.2501 96.6489 11.0204 96.4345 10.8352C96.2178 10.6499 95.9567 10.5568 95.6556 10.5568C95.2211 10.5568 94.8811 10.7247 94.6311 11.0616C94.3834 11.3985 94.2578 11.8286 94.2578 12.354C94.2578 12.8588 94.3767 13.2683 94.6156 13.5836C94.8678 13.9194 95.2078 14.0873 95.6334 14.0873C96.0156 14.0873 96.3211 13.9476 96.5534 13.667C96.7778 13.4081 96.8878 13.0961 96.8878 12.7321Z" fill="black"/>
<path d="M108.053 12.2901C108.053 13.0755 107.823 13.719 107.363 14.2238C106.881 14.7428 106.243 15.0017 105.444 15.0017C104.677 15.0017 104.064 14.7536 103.607 14.2553C103.151 13.758 102.923 13.1308 102.923 12.3746C102.923 11.5838 103.158 10.9348 103.629 10.4311C104.1 9.92734 104.733 9.67493 105.532 9.67493C106.3 9.67493 106.919 9.92301 107.386 10.4203C107.83 10.9034 108.053 11.5274 108.053 12.2901ZM106.847 12.3269C106.847 11.8557 106.742 11.4516 106.534 11.1147C106.289 10.7073 105.942 10.5037 105.489 10.5037C105.022 10.5037 104.667 10.7073 104.421 11.1147C104.212 11.4516 104.109 11.8622 104.109 12.3475C104.109 12.8188 104.213 13.2228 104.421 13.5598C104.673 13.9671 105.024 14.1708 105.478 14.1708C105.922 14.1708 106.272 13.9638 106.523 13.5489C106.738 13.2055 106.847 12.7982 106.847 12.3269Z" fill="black"/>
<path d="M114.314 14.8858H113.151V11.9608C113.151 11.0594 112.8 10.6088 112.094 10.6088C111.749 10.6088 111.47 10.7323 111.254 10.9804C111.039 11.2284 110.931 11.5209 110.931 11.8557V14.8847H109.766V11.2382C109.766 10.7897 109.752 10.3033 109.724 9.77678H110.747L110.801 10.5752H110.833C110.97 10.3271 111.172 10.1224 111.437 9.95878C111.753 9.76811 112.106 9.67169 112.493 9.67169C112.981 9.67169 113.388 9.82553 113.711 10.1343C114.114 10.5124 114.314 11.0768 114.314 11.8264V14.8858Z" fill="black"/>
<path d="M122.151 10.6293H120.869V13.1102C120.869 13.7407 121.097 14.0559 121.548 14.0559C121.757 14.0559 121.93 14.0386 122.067 14.0028L122.097 14.8641C121.867 14.9486 121.565 14.9908 121.192 14.9908C120.732 14.9908 120.375 14.8543 120.116 14.5813C119.856 14.3083 119.727 13.849 119.727 13.2044V10.6293H118.961V9.77891H119.727V8.84291L120.868 8.50708V9.77783H122.15V10.6293H122.151Z" fill="black"/>
<path d="M128.316 14.8858H127.15V11.9824C127.15 11.067 126.799 10.6088 126.096 10.6088C125.556 10.6088 125.187 10.8742 124.985 11.405C124.95 11.5166 124.93 11.6531 124.93 11.8134V14.8847H123.767V7.43567H124.93V10.5134H124.952C125.319 9.95334 125.845 9.67384 126.526 9.67384C127.008 9.67384 127.407 9.82767 127.723 10.1364C128.118 10.521 128.316 11.093 128.316 11.8492V14.8858Z" fill="black"/>
<path d="M134.674 12.0907C134.674 12.2944 134.659 12.4656 134.631 12.6053H131.139C131.154 13.1102 131.321 13.4947 131.644 13.7612C131.94 13.9996 132.321 14.1187 132.788 14.1187C133.304 14.1187 133.776 14.0386 134.2 13.8772L134.382 14.6658C133.886 14.876 133.301 14.9811 132.624 14.9811C131.813 14.9811 131.174 14.7482 130.712 14.2823C130.248 13.8165 130.018 13.1914 130.018 12.4071C130.018 11.6368 130.232 10.9955 130.664 10.4842C131.116 9.93816 131.726 9.66516 132.496 9.66516C133.249 9.66516 133.821 9.93816 134.208 10.4842C134.52 10.9175 134.674 11.4537 134.674 12.0907ZM133.563 11.7972C133.572 11.4602 133.496 11.1699 133.338 10.9251C133.136 10.6098 132.828 10.4517 132.411 10.4517C132.031 10.4517 131.721 10.6055 131.484 10.9142C131.291 11.1602 131.177 11.4537 131.139 11.7972H133.563Z" fill="black"/>
<path d="M59.6055 34.4627H57.0822L55.7 30.2279H50.8955L49.5789 34.4627H47.1222L51.8822 20.0457H54.8222L59.6055 34.4627ZM55.2833 28.4512L54.0333 24.6867C53.9011 24.3021 53.6533 23.3964 53.2877 21.9707H53.2433C53.0977 22.5839 52.8633 23.4896 52.5411 24.6867L51.3133 28.4512H55.2833Z" fill="black"/>
<path d="M71.8466 29.137C71.8466 30.905 71.3566 32.3025 70.3766 33.3284C69.4989 34.2417 68.4089 34.6977 67.1077 34.6977C65.7033 34.6977 64.6944 34.2059 64.08 33.2222H64.0355V38.6985H61.6666V27.4892C61.6666 26.3777 61.6366 25.237 61.5789 24.067H63.6622L63.7944 25.7147H63.8389C64.6289 24.4732 65.8277 23.8536 67.4366 23.8536C68.6944 23.8536 69.7444 24.3378 70.5844 25.3074C71.4266 26.2781 71.8466 27.5542 71.8466 29.137ZM69.4333 29.2215C69.4333 28.2097 69.2 27.3755 68.7311 26.719C68.2189 26.0343 67.5311 25.692 66.6689 25.692C66.0844 25.692 65.5533 25.8827 65.0789 26.2586C64.6033 26.6377 64.2922 27.1328 64.1466 27.746C64.0733 28.032 64.0366 28.266 64.0366 28.4502V30.1835C64.0366 30.9397 64.2744 31.5777 64.75 32.0988C65.2255 32.6199 65.8433 32.8799 66.6033 32.8799C67.4955 32.8799 68.19 32.5441 68.6866 31.8746C69.1844 31.204 69.4333 30.32 69.4333 29.2215Z" fill="black"/>
<path d="M84.1099 29.137C84.1099 30.905 83.6199 32.3025 82.6388 33.3284C81.7622 34.2417 80.6721 34.6977 79.371 34.6977C77.9666 34.6977 76.9577 34.2059 76.3444 33.2222H76.2999V38.6985H73.931V27.4892C73.931 26.3777 73.901 25.237 73.8433 24.067H75.9266L76.0588 25.7147H76.1033C76.8921 24.4732 78.091 23.8536 79.701 23.8536C80.9577 23.8536 82.0077 24.3378 82.8499 25.3074C83.6888 26.2781 84.1099 27.5542 84.1099 29.137ZM81.6966 29.2215C81.6966 28.2097 81.4621 27.3755 80.9933 26.719C80.481 26.0343 79.7955 25.692 78.9322 25.692C78.3466 25.692 77.8166 25.8827 77.341 26.2586C76.8655 26.6377 76.5555 27.1328 76.4099 27.746C76.3377 28.032 76.2999 28.266 76.2999 28.4502V30.1835C76.2999 30.9397 76.5377 31.5777 77.011 32.0988C77.4866 32.6188 78.1044 32.8799 78.8666 32.8799C79.7588 32.8799 80.4533 32.5441 80.9499 31.8746C81.4477 31.204 81.6966 30.32 81.6966 29.2215Z" fill="black"/>
<path d="M97.821 30.4197C97.821 31.646 97.3844 32.6437 96.5077 33.414C95.5444 34.2557 94.2033 34.6761 92.4799 34.6761C90.8888 34.6761 89.6133 34.3771 88.6477 33.778L89.1966 31.8529C90.2366 32.4661 91.3777 32.7737 92.621 32.7737C93.5133 32.7737 94.2077 32.5766 94.7066 32.1844C95.2033 31.7922 95.451 31.2657 95.451 30.6092C95.451 30.0242 95.2466 29.5313 94.8366 29.1316C94.4288 28.7318 93.7477 28.3602 92.7966 28.0168C90.2077 27.0754 88.9144 25.6963 88.9144 23.8828C88.9144 22.6977 89.3677 21.7259 90.2755 20.9697C91.1799 20.2125 92.3866 19.8344 93.8955 19.8344C95.241 19.8344 96.3588 20.063 97.251 20.5191L96.6588 22.4019C95.8255 21.9599 94.8833 21.7389 93.8288 21.7389C92.9955 21.7389 92.3444 21.9393 91.8777 22.338C91.4833 22.6944 91.2855 23.1288 91.2855 23.6434C91.2855 24.2132 91.511 24.6845 91.9644 25.055C92.3588 25.3973 93.0755 25.7678 94.1155 26.1676C95.3877 26.667 96.3222 27.2509 96.9233 27.9204C97.5222 28.5877 97.821 29.423 97.821 30.4197Z" fill="black"/>
<path d="M105.653 25.8003H103.042V30.8476C103.042 32.1313 103.502 32.7727 104.424 32.7727C104.848 32.7727 105.199 32.7369 105.477 32.6654L105.542 34.4193C105.075 34.5894 104.461 34.675 103.7 34.675C102.764 34.675 102.033 34.3966 101.505 33.8408C100.98 33.284 100.715 32.3502 100.715 31.0382V25.7982H99.1599V24.0648H100.715V22.1614L103.042 21.4767V24.0648H105.653V25.8003Z" fill="black"/>
<path d="M117.434 29.1792C117.434 30.7771 116.966 32.0891 116.03 33.115C115.049 34.1712 113.747 34.6977 112.123 34.6977C110.559 34.6977 109.313 34.1918 108.384 33.18C107.456 32.1681 106.991 30.8909 106.991 29.3515C106.991 27.7406 107.469 26.4211 108.428 25.3951C109.384 24.3681 110.676 23.8546 112.299 23.8546C113.863 23.8546 115.122 24.3606 116.072 25.3735C116.981 26.3561 117.434 27.6246 117.434 29.1792ZM114.977 29.254C114.977 28.2952 114.767 27.473 114.341 26.7872C113.844 25.9574 113.134 25.5436 112.214 25.5436C111.262 25.5436 110.539 25.9585 110.042 26.7872C109.617 27.4741 109.407 28.3093 109.407 29.2973C109.407 30.2561 109.617 31.0783 110.042 31.763C110.554 32.5928 111.27 33.0066 112.193 33.0066C113.098 33.0066 113.808 32.5841 114.32 31.7413C114.757 31.0426 114.977 30.2116 114.977 29.254Z" fill="black"/>
<path d="M125.134 26.0982C124.9 26.056 124.65 26.0343 124.388 26.0343C123.554 26.0343 122.91 26.3409 122.457 26.9552C122.062 27.4968 121.864 28.1815 121.864 29.0081V34.4627H119.497L119.519 27.3408C119.519 26.1427 119.489 25.0517 119.43 24.0681H121.493L121.58 26.0571H121.646C121.896 25.3735 122.29 24.8232 122.83 24.4104C123.358 24.0388 123.928 23.8536 124.542 23.8536C124.761 23.8536 124.959 23.8687 125.134 23.8958V26.0982Z" fill="black"/>
<path d="M135.729 28.773C135.729 29.1868 135.701 29.5357 135.642 29.8206H128.536C128.563 30.8476 128.907 31.633 129.567 32.1747C130.166 32.6589 130.94 32.9016 131.891 32.9016C132.943 32.9016 133.903 32.738 134.767 32.4097L135.138 34.0131C134.129 34.4421 132.938 34.6555 131.563 34.6555C129.91 34.6555 128.612 34.181 127.668 33.2331C126.726 32.2852 126.253 31.0122 126.253 29.4154C126.253 27.8478 126.692 26.5424 127.571 25.5013C128.491 24.3898 129.734 23.8341 131.299 23.8341C132.836 23.8341 133.999 24.3898 134.789 25.5013C135.414 26.3842 135.729 27.4762 135.729 28.773ZM133.47 28.1739C133.486 27.4892 133.331 26.8977 133.01 26.3983C132.6 25.7559 131.97 25.4352 131.122 25.4352C130.348 25.4352 129.718 25.7483 129.237 26.3767C128.842 26.8761 128.608 27.4752 128.536 28.1728H133.47V28.1739Z" fill="black"/>
</svg>
