<svg width="48" height="48" viewBox="0 0 48 48" fill="none" xmlns="http://www.w3.org/2000/svg">
<path d="M38.4706 44.5052V3.49481C38.4706 2.85586 37.7585 2.47475 37.2268 2.82917L31.1926 6.85199C30.9027 7.04523 30.5211 7.02867 30.2491 6.81104L24.7351 2.3998C24.4429 2.16606 24.0277 2.16606 23.7355 2.3998L18.2215 6.81104C17.9495 7.02867 17.5678 7.04523 17.278 6.85198L11.2438 2.82917C10.7121 2.47474 10 2.85585 10 3.49481V44.5052C10 45.1441 10.7121 45.5253 11.2438 45.1708L17.278 41.148C17.5678 40.9548 17.9495 40.9713 18.2215 41.189L23.7355 45.6002C24.0277 45.8339 24.4429 45.8339 24.7351 45.6002L30.2491 41.189C30.5211 40.9713 30.9027 40.9548 31.1926 41.148L37.2268 45.1708C37.7585 45.5253 38.4706 45.1441 38.4706 44.5052Z" stroke="#176B87" stroke-width="2.5"/>
<path d="M17.765 17.5295H30.7062" stroke="#176B87" stroke-width="2.5" stroke-linecap="round"/>
<path d="M17.765 24H30.7062" stroke="#176B87" stroke-width="2.5" stroke-linecap="round"/>
<path d="M17.765 30.4705H30.7062" stroke="#176B87" stroke-width="2.5" stroke-linecap="round"/>
</svg>
