<svg width="48" height="48" viewBox="0 0 48 48" fill="none" xmlns="http://www.w3.org/2000/svg">
<path d="M6 19.7082C6 17.6602 7.66022 16 9.7082 16V16C11.1128 16 12.3968 15.2064 13.0249 13.9502L14.8944 10.2111C15.4323 9.13531 15.7013 8.5974 16.1846 8.2987C16.6679 8 17.2693 8 18.4721 8H29.5279C30.7307 8 31.3321 8 31.8154 8.2987C32.2987 8.5974 32.5677 9.13531 33.1056 10.2111L34.9751 13.9502C35.6032 15.2064 36.8872 16 38.2918 16V16C40.3398 16 42 17.6602 42 19.7082V34C42 36.8284 42 38.2426 41.1213 39.1213C40.2426 40 38.8284 40 36 40H12C9.17157 40 7.75736 40 6.87868 39.1213C6 38.2426 6 36.8284 6 34V19.7082Z" stroke="#176B87" stroke-width="2.5"/>
<circle cx="24" cy="26" r="6.75" stroke="#176B87" stroke-width="2.5"/>
</svg>
