<svg width="48" height="48" viewBox="0 0 48 48" fill="none" xmlns="http://www.w3.org/2000/svg">
<circle cx="24" cy="16" r="8" stroke="#176B87" stroke-width="2.5" stroke-linecap="round"/>
<path fill-rule="evenodd" clip-rule="evenodd" d="M34 33.1928C33.2136 32.7644 32.3808 32.3871 31.5102 32.0651C28.4869 30.9469 25.1066 30.5311 21.7888 30.8587C18.4719 31.1862 15.3294 32.246 12.7636 33.9336C10.1975 35.6214 8.29331 37.8838 7.36807 40.4736C7.13581 41.1237 7.47454 41.839 8.12465 42.0713C8.77476 42.3036 9.49007 41.9648 9.72233 41.3147C10.4352 39.3195 11.9451 37.4642 14.1374 36.0223C16.33 34.5801 19.0765 33.6387 22.0344 33.3466C24.5361 33.0996 27.0675 33.3293 29.3942 34H34V33.1928ZM38 39.2419C38.2181 39.2169 38.4323 39.1341 38.6189 38.9905C38.9385 38.7445 39.1062 38.3744 39.1065 38H38V39.2419Z" fill="#176B87"/>
<path d="M36 28L36 44" stroke="#176B87" stroke-width="2.5" stroke-linecap="round"/>
<path d="M44 36L28 36" stroke="#176B87" stroke-width="2.5" stroke-linecap="round"/>
</svg>
