<svg width="48" height="48" viewBox="0 0 48 48" fill="none" xmlns="http://www.w3.org/2000/svg">
<path d="M38.6518 11.5554C40 13.5732 40 16.3822 40 22C40 27.6178 40 30.4268 38.6518 32.4446C38.0681 33.3181 37.3181 34.0681 36.4446 34.6518C34.6819 35.8296 32.3154 35.9785 28 35.9973V36L25.7889 40.4223C25.0518 41.8964 22.9482 41.8964 22.2111 40.4223L20 36V35.9973C15.6846 35.9785 13.3181 35.8296 11.5554 34.6518C10.6819 34.0681 9.93191 33.3181 9.34824 32.4446C8 30.4268 8 27.6178 8 22C8 16.3822 8 13.5732 9.34824 11.5554C9.93191 10.6819 10.6819 9.93191 11.5554 9.34824C13.5732 8 16.3822 8 22 8H26C31.6178 8 34.4268 8 36.4446 9.34824C37.3181 9.93191 38.0681 10.6819 38.6518 11.5554Z" stroke="#176B87" stroke-width="2.5" stroke-linecap="round" stroke-linejoin="round"/>
<path d="M18 18L30 18" stroke="#176B87" stroke-width="2.5" stroke-linecap="round" stroke-linejoin="round"/>
<path d="M18 26H24" stroke="#176B87" stroke-width="2.5" stroke-linecap="round" stroke-linejoin="round"/>
</svg>
