<svg width="48" height="48" viewBox="0 0 48 48" fill="none" xmlns="http://www.w3.org/2000/svg">
<path d="M21.0556 26.8232L15.4358 26.3123C13.908 26.1735 13.1441 26.104 12.9015 25.5814C12.6588 25.0588 13.0987 24.4304 13.9785 23.1736L24.5612 8.05544C25.1424 7.22517 25.433 6.81003 25.6836 6.89831C25.9342 6.98658 25.9005 7.4922 25.8331 8.50343L25.1299 19.0519C25.0685 19.9721 25.0379 20.4322 25.3023 20.7419C25.5667 21.0515 26.0259 21.0933 26.9444 21.1768L32.5642 21.6877C34.092 21.8265 34.8559 21.896 35.0985 22.4186C35.3412 22.9412 34.9013 23.5696 34.0215 24.8264L23.4388 39.9446C22.8576 40.7748 22.567 41.19 22.3164 41.1017C22.0658 41.0134 22.0995 40.5078 22.1669 39.4966L22.8701 28.9481C22.9315 28.0279 22.9621 27.5678 22.6977 27.2581C22.4333 26.9485 21.9741 26.9067 21.0556 26.8232Z" fill="#176B87"/>
<path d="M37 8L34 12H38L35 16" stroke="#7E869E" stroke-opacity="0.25" stroke-linecap="round" stroke-linejoin="round"/>
<path d="M13 32L10 36H14L11 40" stroke="#7E869E" stroke-opacity="0.25" stroke-linecap="round" stroke-linejoin="round"/>
</svg>
