<svg width="40" height="40" viewBox="0 0 40 40" fill="none" xmlns="http://www.w3.org/2000/svg">
<rect width="40" height="40" rx="8" fill="#176B87"/>
<g clipPath="url(#clip0_5350_6557)">
<path d="M20 8C13.3726 8 8 13.3726 8 20C8 25.6275 11.8746 30.3498 17.1013 31.6467V23.6672H14.6269V20H17.1013V18.4198C17.1013 14.3355 18.9498 12.4424 22.9597 12.4424C23.72 12.4424 25.0318 12.5917 25.5685 12.7405V16.0645C25.2853 16.0347 24.7933 16.0198 24.1822 16.0198C22.2147 16.0198 21.4544 16.7653 21.4544 18.703V20H25.3741L24.7006 23.6672H21.4544V31.9122C27.3963 31.1946 32.0005 26.1354 32.0005 20C32 13.3726 26.6274 8 20 8Z" fill="white"/>
</g>
<defs>
<clipPath id="clip0_5350_6557">
<rect width="24" height="24" fill="white" transform="translate(8 8)"/>
</clipPath>
</defs>
</svg>
