<svg width="150" height="44" viewBox="0 0 150 44" fill="none" xmlns="http://www.w3.org/2000/svg">
<path d="M144.444 43.6667H5.55556C2.50139 43.6667 0 41.2278 0 38.25V5.75002C0 2.77221 2.50139 0.333357 5.55556 0.333357H144.444C147.499 0.333357 150 2.77221 150 5.75002V38.25C150 41.2278 147.499 43.6667 144.444 43.6667Z" fill="white"/>
<path d="M11.5945 8.50033C11.2681 8.83346 11.0792 9.3521 11.0792 10.0238V33.9817C11.0792 34.6534 11.2681 35.172 11.5945 35.5051L11.6751 35.5782L25.4445 22.1585V21.8416L11.6751 8.42179L11.5945 8.50033Z" fill="url(#paint0_linear_4949_238)"/>
<path d="M30.0292 26.634L25.4445 22.1585V21.8416L30.0347 17.3661L30.1375 17.4243L35.5736 20.44C37.125 21.2958 37.125 22.7042 35.5736 23.5654L30.1375 26.5757L30.0292 26.634Z" fill="url(#paint1_linear_4949_238)"/>
<path d="M30.1375 26.5758L25.4445 22L11.5945 35.5051C12.1098 36.0333 12.95 36.0969 13.9056 35.5688L30.1375 26.5758Z" fill="url(#paint2_linear_4949_238)"/>
<path d="M30.1375 17.4243L13.9056 8.43128C12.95 7.90858 12.1098 7.97222 11.5945 8.50034L25.4445 22L30.1375 17.4243Z" fill="url(#paint3_linear_4949_238)"/>
<path d="M52.6862 11.4307C52.6862 12.3353 52.4084 13.0598 51.8612 13.6001C51.232 14.2406 50.4125 14.5629 49.4084 14.5629C48.4487 14.5629 47.6292 14.2352 46.957 13.5893C46.2834 12.9339 45.9473 12.1295 45.9473 11.1667C45.9473 10.2039 46.2834 9.39948 46.957 8.74948C47.6292 8.09813 48.4487 7.77042 49.4084 7.77042C49.8862 7.77042 50.3417 7.86656 50.7764 8.04531C51.2098 8.22542 51.5625 8.46917 51.8181 8.76979L51.2375 9.34125C50.7917 8.82802 50.1848 8.57479 49.4084 8.57479C48.7084 8.57479 48.1014 8.81312 47.5862 9.29385C47.0764 9.77594 46.8209 10.4002 46.8209 11.1667C46.8209 11.9331 47.0764 12.5628 47.5862 13.0449C48.1014 13.5202 48.7084 13.764 49.4084 13.764C50.1514 13.764 50.7764 13.5202 51.2695 13.0395C51.5945 12.7212 51.7792 12.2825 51.8278 11.7219H49.4084V10.9392H52.6362C52.675 11.1084 52.6862 11.2723 52.6862 11.4307Z" fill="black" stroke="black" stroke-width="0.16" stroke-miterlimit="10"/>
<path d="M57.807 8.71698H54.7751V10.7753H57.5084V11.558H54.7751V13.6163H57.807V14.414H53.9167V7.91937H57.807V8.71698Z" fill="black" stroke="black" stroke-width="0.16" stroke-miterlimit="10"/>
<path d="M61.4208 14.414H60.5625V8.71698H58.7028V7.91937H63.2819V8.71698H61.4208V14.414Z" fill="black" stroke="black" stroke-width="0.16" stroke-miterlimit="10"/>
<path d="M66.5959 14.414V7.91937H67.4529V14.414H66.5959Z" fill="black" stroke="black" stroke-width="0.16" stroke-miterlimit="10"/>
<path d="M71.2514 14.414H70.4V8.71698H68.5333V7.91937H73.118V8.71698H71.2514V14.414Z" fill="black" stroke="black" stroke-width="0.16" stroke-miterlimit="10"/>
<path d="M81.7876 13.5784C81.1306 14.2352 80.3167 14.5629 79.3459 14.5629C78.3695 14.5629 77.5556 14.2352 76.8987 13.5784C76.2431 12.923 75.9167 12.1186 75.9167 11.1667C75.9167 10.2147 76.2431 9.41031 76.8987 8.7549C77.5556 8.09812 78.3695 7.77042 79.3459 7.77042C80.3112 7.77042 81.1251 8.09812 81.782 8.76031C82.4431 9.42114 82.7695 10.2201 82.7695 11.1667C82.7695 12.1186 82.4431 12.923 81.7876 13.5784ZM77.5334 13.0341C78.0279 13.5202 78.6292 13.764 79.3459 13.764C80.057 13.764 80.664 13.5202 81.1529 13.0341C81.6459 12.5479 81.8959 11.9236 81.8959 11.1667C81.8959 10.4097 81.6459 9.78542 81.1529 9.29927C80.664 8.81313 80.057 8.56937 79.3459 8.56937C78.6292 8.56937 78.0279 8.81313 77.5334 9.29927C77.0404 9.78542 76.7904 10.4097 76.7904 11.1667C76.7904 11.9236 77.0404 12.5479 77.5334 13.0341Z" fill="black" stroke="black" stroke-width="0.16" stroke-miterlimit="10"/>
<path d="M83.9736 14.414V7.91937H85.0153L88.2542 12.9704H88.2917L88.2542 11.7219V7.91937H89.1111V14.414H88.2167L84.825 9.11375H84.7875L84.825 10.3677V14.414H83.9736Z" fill="black" stroke="black" stroke-width="0.16" stroke-miterlimit="10"/>
<path d="M75.7055 23.8986C73.0958 23.8986 70.9639 25.8351 70.9639 28.5068C70.9639 31.1569 73.0958 33.1137 75.7055 33.1137C78.3208 33.1137 80.4527 31.1569 80.4527 28.5068C80.4527 25.8351 78.3208 23.8986 75.7055 23.8986ZM75.7055 31.2991C74.2736 31.2991 73.0416 30.1467 73.0416 28.5068C73.0416 26.8453 74.2736 25.7132 75.7055 25.7132C77.1375 25.7132 78.375 26.8453 78.375 28.5068C78.375 30.1467 77.1375 31.2991 75.7055 31.2991ZM65.3597 23.8986C62.7444 23.8986 60.618 25.8351 60.618 28.5068C60.618 31.1569 62.7444 33.1137 65.3597 33.1137C67.9736 33.1137 70.1014 31.1569 70.1014 28.5068C70.1014 25.8351 67.9736 23.8986 65.3597 23.8986ZM65.3597 31.2991C63.9264 31.2991 62.6902 30.1467 62.6902 28.5068C62.6902 26.8453 63.9264 25.7132 65.3597 25.7132C66.7916 25.7132 68.0236 26.8453 68.0236 28.5068C68.0236 30.1467 66.7916 31.2991 65.3597 31.2991ZM53.0486 25.311V27.2691H57.8444C57.7041 28.3633 57.3291 29.1677 56.7541 29.7283C56.0541 30.4054 54.9639 31.1569 53.0486 31.1569C50.0972 31.1569 47.7861 28.8345 47.7861 25.9569C47.7861 23.0793 50.0972 20.7569 53.0486 20.7569C54.6444 20.7569 55.8055 21.3649 56.6625 22.1531L58.0778 20.7732C56.8791 19.6573 55.2847 18.8002 53.0486 18.8002C49.0014 18.8002 45.6 22.0109 45.6 25.9569C45.6 29.903 49.0014 33.1137 53.0486 33.1137C55.2361 33.1137 56.8791 32.4149 58.1708 31.1041C59.4944 29.8136 59.9069 27.999 59.9069 26.5338C59.9069 26.0788 59.868 25.6604 59.7986 25.311H53.0486ZM103.39 26.829C103 25.7985 101.796 23.8986 99.343 23.8986C96.9125 23.8986 94.8888 25.766 94.8888 28.5068C94.8888 31.0879 96.8916 33.1137 99.5763 33.1137C101.747 33.1137 103 31.8232 103.515 31.0716L101.904 30.0248C101.367 30.7913 100.635 31.2991 99.5763 31.2991C98.525 31.2991 97.7708 30.8292 97.2874 29.903L103.608 27.3531L103.39 26.829ZM96.9458 28.3633C96.8916 26.5866 98.3611 25.6766 99.4138 25.6766C100.239 25.6766 100.939 26.0788 101.172 26.6543L96.9458 28.3633ZM91.8083 32.8334H93.8861V19.2917H91.8083V32.8334ZM88.4055 24.9251H88.3361C87.8694 24.3861 86.9791 23.8986 85.8514 23.8986C83.4847 23.8986 81.3208 25.9244 81.3208 28.5217C81.3208 31.1041 83.4847 33.1137 85.8514 33.1137C86.9791 33.1137 87.8694 32.6221 88.3361 32.0669H88.4055V32.7278C88.4055 34.4895 87.4402 35.4361 85.8833 35.4361C84.6138 35.4361 83.8264 34.5423 83.5014 33.7908L81.6944 34.5261C82.2152 35.7475 83.5944 37.2507 85.8833 37.2507C88.3194 37.2507 90.375 35.8532 90.375 32.4529V24.1789H88.4055V24.9251ZM86.0291 31.2991C84.5972 31.2991 83.3986 30.1305 83.3986 28.5217C83.3986 26.8981 84.5972 25.7132 86.0291 25.7132C87.4402 25.7132 88.5527 26.8981 88.5527 28.5217C88.5527 30.1305 87.4402 31.2991 86.0291 31.2991ZM113.118 19.2917H108.149V32.8334H110.221V27.7024H113.118C115.419 27.7024 117.676 26.0788 117.676 23.4964C117.676 20.9154 115.414 19.2917 113.118 19.2917ZM113.172 25.8188H110.221V21.1754H113.172C114.719 21.1754 115.603 22.428 115.603 23.4964C115.603 24.5445 114.719 25.8188 113.172 25.8188ZM125.982 23.8729C124.485 23.8729 122.928 24.5174 122.287 25.9461L124.126 26.6977C124.522 25.9461 125.25 25.7023 126.019 25.7023C127.094 25.7023 128.185 26.332 128.201 27.4438V27.586C127.826 27.3747 127.024 27.0619 126.036 27.0619C124.056 27.0619 122.037 28.1249 122.037 30.1088C122.037 31.9234 123.66 33.092 125.483 33.092C126.878 33.092 127.647 32.4786 128.13 31.7649H128.201V32.8117H130.203V27.6171C130.203 25.2162 128.364 23.8729 125.982 23.8729ZM125.732 31.2937C125.054 31.2937 124.11 30.966 124.11 30.1467C124.11 29.0986 125.287 28.6964 126.307 28.6964C127.219 28.6964 127.647 28.8928 128.201 29.1514C128.039 30.4054 126.932 31.2937 125.732 31.2937ZM137.494 24.1694L135.112 30.0397H135.042L132.579 24.1694H130.344L134.044 32.373L131.933 36.9379H134.099L139.8 24.1694H137.494ZM118.815 32.8334H120.893V19.2917H118.815V32.8334Z" fill="black"/>
<defs>
<linearGradient id="paint0_linear_4949_238" x1="24.2219" y1="34.2312" x2="6.04683" y2="15.5901" gradientUnits="userSpaceOnUse">
<stop stop-color="#00A0FF"/>
<stop offset="0.0066" stop-color="#00A1FF"/>
<stop offset="0.2601" stop-color="#00BEFF"/>
<stop offset="0.5122" stop-color="#00D2FF"/>
<stop offset="0.7604" stop-color="#00DFFF"/>
<stop offset="1" stop-color="#00E3FF"/>
</linearGradient>
<linearGradient id="paint1_linear_4949_238" x1="37.5938" y1="21.9985" x2="10.7083" y2="21.9985" gradientUnits="userSpaceOnUse">
<stop stop-color="#FFE000"/>
<stop offset="0.4087" stop-color="#FFBD00"/>
<stop offset="0.7754" stop-color="#FFA500"/>
<stop offset="1" stop-color="#FF9C00"/>
</linearGradient>
<linearGradient id="paint2_linear_4949_238" x1="27.5856" y1="19.5126" x2="2.93867" y2="-5.76631" gradientUnits="userSpaceOnUse">
<stop stop-color="#FF3A44"/>
<stop offset="1" stop-color="#C31162"/>
</linearGradient>
<linearGradient id="paint3_linear_4949_238" x1="8.10815" y1="43.4758" x2="19.1141" y2="32.1878" gradientUnits="userSpaceOnUse">
<stop stop-color="#32A071"/>
<stop offset="0.0685" stop-color="#2DA771"/>
<stop offset="0.4762" stop-color="#15CF74"/>
<stop offset="0.8009" stop-color="#06E775"/>
<stop offset="1" stop-color="#00F076"/>
</linearGradient>
</defs>
</svg>
