<svg width="40" height="169" viewBox="0 0 40 169" fill="none" xmlns="http://www.w3.org/2000/svg">
<path d="M17.5251 8.83704C18.5739 6.22237 19.0983 4.91504 20 4.91504C20.9018 4.91504 21.4262 6.22237 22.475 8.83704L22.5239 8.95879C23.1164 10.4359 23.4126 11.1745 24.0164 11.6234C24.6202 12.0724 25.4129 12.1433 26.9981 12.2853L27.2847 12.311C29.8791 12.5433 31.1763 12.6595 31.4539 13.4848C31.7314 14.3101 30.7681 15.1866 28.8413 16.9395L28.1983 17.5245C27.223 18.4119 26.7353 18.8556 26.508 19.4371C26.4656 19.5456 26.4303 19.6567 26.4025 19.7698C26.2531 20.376 26.3959 21.0196 26.6815 22.3069L26.7704 22.7076C27.2953 25.0734 27.5577 26.2563 27.0995 26.7665C26.9283 26.9572 26.7057 27.0944 26.4585 27.1619C25.7969 27.3424 24.8576 26.577 22.979 25.0462C21.7454 24.0411 21.1286 23.5385 20.4205 23.4254C20.142 23.3809 19.8581 23.3809 19.5796 23.4254C18.8714 23.5385 18.2547 24.0411 17.0211 25.0462C15.1425 26.577 14.2032 27.3424 13.5416 27.1619C13.2944 27.0944 13.0718 26.9572 12.9006 26.7665C12.4424 26.2563 12.7048 25.0734 13.2297 22.7076L13.3186 22.3069C13.6042 21.0196 13.747 20.376 13.5976 19.7698C13.5697 19.6567 13.5345 19.5456 13.4921 19.4371C13.2648 18.8556 12.7771 18.4119 11.8018 17.5245L11.1587 16.9395C9.23202 15.1866 8.26866 14.3101 8.54623 13.4848C8.8238 12.6595 10.121 12.5433 12.7154 12.311L13.002 12.2853C14.5872 12.1433 15.3798 12.0724 15.9836 11.6234C16.5874 11.1745 16.8837 10.4359 17.4762 8.95879L17.5251 8.83704Z" stroke="white" stroke-width="2"/>
<line x1="18.5" y1="167.5" x2="18.5" y2="36.5005" stroke="#A9ADB0" stroke-width="3" stroke-linecap="round" stroke-dasharray="1 8"/>
</svg>
