<?xml version="1.0" encoding="UTF-8"?>
<svg id="Layer_2" data-name="Layer 2" xmlns="http://www.w3.org/2000/svg" viewBox="0 0 2456.06 441.31">
  <defs>
    <style>
      .cls-1 {
        fill: #176b87;
        stroke-width: 0px;
      }
    </style>
  </defs>
  <g id="Layer_1-2" data-name="Layer 1">
    <g>
      <g>
        <path className="cls-1" d="M1821.3,304.71c-9.9.03-16.63-5-19.41-14.48-1.94-6.6-2.7-13.55-4.67-20.13-2.95-9.84-4.94-20.44-10.12-29.04-9.72-16.14-26.26-21.48-44.33-22.8-6.62-.48-13.2-1.43-19.79-2.16-.26-.76-.52-1.51-.78-2.27,3.59-1.44,7.09-3.13,10.77-4.27,7.55-2.33,15.52-3.58,22.72-6.67,18.37-7.89,34.19-18.88,41.89-38.61,9.79-25.11.67-65.97-34.04-84.31-29.97-15.84-62.46-20.6-95.63-21.01-52.37-.64-104.75-.18-157.12-.41-5.31-.02-7.11,1.41-7.04,6.84.27,20.98.07,41.96.15,62.95.05,13.56.13,13.56,13.94,13.93,1.02.03,2.04.09,3.05.11,9.61.22,10.33,1.03,10.29,10.6-.17,34.42-.34,68.85-.4,103.27-.02,13.23.31,26.46.37,39.69.03,6.66-1.74,8.28-8.29,8.18-4.69-.07-9.39.04-14.06-.27-3.54-.23-5.3.69-5.3,4.59.01,24.86-.07,49.72-.22,74.57-.02,3.82,1.75,4.85,5.28,4.77,6.06-.14,12.14.16,18.2.18,40.14.11,80.27.2,120.41.28,5.09.01,10.19-.09,15.28-.22,4.17-.11,6.4-2.2,6.29-6.5-.11-4.48-.27-8.96-.28-13.43-.06-19.15-.21-38.31-.02-57.46.05-5.34-1.94-7.31-7.16-7.1-5.9.24-11.84.26-17.71-.27-1.7-.15-4.56-2.48-4.59-3.85-.28-15.48-.2-30.96-.02-46.45.05-4.1,2.42-6.24,6.72-6.15,5.3.12,10.61-.11,15.89.14,9.98.48,21.14,10.28,22.5,20.2,1.38,10.06,1.63,20.28,3.2,30.31,3.05,19.48,8.8,38.09,20.68,54.24,15.99,21.74,38.85,32.06,64.45,35.76,15.59,2.25,31.69,1.14,47.56,1.28,8.25.07,9.73-1.43,9.75-9.57.07-21.99-.3-43.99.05-65.98.1-6.62-2.4-8.5-8.47-8.48ZM1674.67,187.6c-10.22,1.35-20.68,1.22-31.03,1.07-1.69-.02-4.53-3.35-4.76-5.39-.65-5.83-.23-11.77-.23-17.67.11,0,.21,0,.32,0,0-5.49,0-10.99,0-16.48,0-4.7,1.98-7.25,7.05-6.89,9.9.7,19.96.43,29.69,2.1,11.38,1.95,18.59,11.55,18.31,21.91-.26,9.84-8.55,19.92-19.35,21.35Z"/>
        <path className="cls-1" d="M877.44,258.23c-20.15.05-40.3.24-60.45.37-4.84.03-9.69,0-15.42,0,0,13.64.06,25.85-.02,38.06-.05,6.78-1.65,8.15-8.39,8.02-18.13-.36-36.26-.79-54.39-.92-4.49-.03-6.88-1.24-6.91-6.1-.1-14.66-.41-29.32-.52-43.99-.04-4.72,2.31-6.79,7.27-6.73,15.49.2,30.97.06,46.46.05,4.61,0,9.23,0,14.03,0v-57.68c-2.19-.13-3.97-.34-5.76-.34-18.34,0-36.68-.08-55.02.15-4.65.06-6.85-1.46-6.86-6.15-.03-11.81-.09-23.63-.26-35.44-.06-3.93,1.74-5.49,5.53-5.47,19.97.09,39.94.14,59.91.14,3.79,0,4.98,2.06,4.93,5.42-.06,4.89-.26,9.78-.11,14.66.49,16.28-2.97,15.19,16.22,15.88,19.34.7,38.72.17,58.08.2,9.49.02,9.59.05,9.61-9.33.06-33.21.03-66.42.06-99.63,0-10.78-.08-10.87-10.84-10.86-54.82.03-109.64.06-164.46.07-35.46.01-70.92.14-106.38-.13-6.01-.05-7.83,1.88-7.5,7.66.43,7.31.12,14.66.14,22,.06,16.1.17,32.19.15,48.28,0,4.37,1.49,6.24,6.23,5.76,5.04-.52,10.18-.06,15.27-.27,3.95-.16,5.61,1.67,5.65,5.41.02,2.04.15,4.07.15,6.11-.01,40.95-.03,81.91-.06,122.86,0,6.93-.14,13.85-.07,20.78.05,5-1.78,7.6-7.26,7.16-4.66-.38-9.36-.08-14.04-.21-4.92-.14-7.04,1.46-6.99,7.05.21,23.63,0,47.26-.37,70.89-.09,5.43,2.43,6.69,7.02,6.58,11.39-.26,22.78-.6,34.18-.6,62.14-.01,124.29.06,186.43.11,17.91.02,35.83.11,53.74.07,8.56-.02,8.96-.47,9.01-8.98.04-6.72-.08-13.44-.06-20.16.07-30.76.2-61.52.2-92.29,0-8.03-.48-8.5-8.13-8.48Z"/>
        <path className="cls-1" d="M1465.59,58.72c-91.09-.04-182.17,0-273.26-.15-5.28,0-6.47,1.88-6.45,6.72.1,20.78-.17,41.55-.22,62.33-.03,14.45.03,14.45,14.66,14.2.2,0,.41,0,.61,0,11.72-.1,12.65.77,12.64,12.29-.03,46.65-.09,93.3-.13,139.96,0,9.32-1.09,10.41-10.59,10.43-5.8.02-11.59,0-17.64,0,0,26.26.08,51.51-.07,76.77-.03,4.88,2.17,6.43,6.64,6.43,8.75,0,17.51.35,26.26.34,79.47-.04,158.94-.13,238.41-.21,5.84,0,11.68,0,17.79,0v-128.01c-1.02-.3-1.6-.62-2.18-.62-25.26-.2-50.52-.33-75.78-.57-3.88-.04-4.74,1.9-4.72,5.33.07,10.59.11,21.19-.2,31.78-.23,7.97-1.05,8.72-9.01,8.76-18.13.09-36.27-.1-54.41-.02-4.71.02-6.45-1.8-6.34-6.57.28-12.42.24-24.84.18-37.27-.08-16.76.24-13.51,13.32-13.67,17.89-.22,35.78-.06,54.5-.06,0-17.39-.2-33.87.11-50.33.11-5.87-1.81-7.84-7.73-7.73-17.93.34-35.86.15-53.79.23-3.5.02-6.58,0-6.51-4.88.19-12.42.22-24.84.27-37.26.02-3.54,1.55-5.01,5.24-4.99,19.15.11,38.31.07,57.46.01,3.88-.01,6.18,1.31,6.27,5.58.15,7.53.55,15.05.74,22.58.17,6.67,1.57,8.25,8.19,8.25,22.61.02,45.21-.02,67.82-.08,2.16,0,4.33-.32,7.02-.53,0-2.84,0-5.06,0-7.28.03-34.23.07-68.45.09-102.68,0-9-.02-9.1-9.2-9.1Z"/>
        <path className="cls-1" d="M2455.78,266.83c-.02-8.09-.43-8.56-8.77-8.56-16.51-.01-33.01.22-49.52.31-8.12.04-16.24,0-24.63,0,0,14.03-.08,26.43.04,38.83.05,5.03-1.7,7.35-7.17,7.27-18.74-.28-37.49-.26-56.24-.14-4.8.03-7.22-1.49-7.22-6.59,0-14.05-.38-28.1-.26-42.15.07-8.2,1.04-8.88,9.41-8.89,17.94-.02,35.87-.06,53.81.09,3.93.03,5.91-.7,5.83-5.32-.27-15.28-.21-30.56-.06-45.84.05-5.15-1.7-7.05-7.15-6.96-18.13.29-36.28.05-54.41,0-3.61-.01-7.19-.06-7.19-5.18,0-11.8,0-23.61-.12-35.41-.05-4.77,2.2-6.31,6.78-6.27,19.36.2,38.72.25,58.08.14,4.33-.02,5.75,1.76,5.67,5.83-.13,6.92-.08,13.85.04,20.78.15,8.56.2,9.04,8.65,9.19,21.79.38,43.6.3,65.39.39,9.18.04,9.27-.08,9.25-9.08-.05-28.52-.1-57.05-.15-85.57,0-5.7,0-11.41-.05-17.11-.05-5.22-1.84-8.48-7.97-7.98-4.86.39-9.77.01-14.66,0-59.5-.08-119-.17-178.5-.21-27.09-.02-54.18.15-81.27.05-4.44-.02-6.1,1.38-6.08,5.94.13,24.24.05,48.48-.06,72.71-.02,3.66,1.35,5.12,5.06,4.98,4.88-.18,9.8.34,14.66,0,5.56-.38,7.05,2.29,7.01,7.26-.13,13.45-.02,26.9,0,40.34.02,35.66-.04,71.32.1,106.97.02,5.77-1.46,8.73-8.01,8.12-6.2-.58-12.49-.12-19.42-.12,0,26.45-.04,52.09.05,77.72.01,3.32,1.85,5,5.48,5.03,10.37.08,20.73.65,31.1.64,81.51-.05,163.02-.23,244.54-.2,5.96,0,8.29-1.69,8.25-7.98-.27-37.69-.18-75.38-.28-113.07Z"/>
        <path className="cls-1" d="M2147.96,65.45c.06-5.9-1.86-7.57-7.69-7.54-37.91.23-75.82.12-113.73.12-5.41,0-10.82,0-16.46,0-.16,3.4-.34,5.41-.35,7.42-.08,22-.15,44.01-.18,66.01-.01,8.6.04,8.6,8.62,9.37,6.98.62,8.6,3.09,6.23,9.52-10.45,28.44-20.84,56.9-31.44,85.28-.89,2.39-3.15,4.26-4.78,6.37-1.52-2.24-3.57-4.29-4.47-6.75-4.09-11.27-7.75-22.69-11.78-33.98-6.14-17.21-12.71-34.27-18.59-51.56-2.37-6.96-.46-8.87,6.73-8.91,1.95-.01,3.91,0,6.63,0,0-3.61,0-6.42,0-9.23-.06-21.39-.11-42.78-.18-64.18-.03-8.6-.44-9.15-8.87-9.16-36.28-.06-72.55-.04-108.83-.05-5.86,0-11.73,0-18.13,0,0,26.71-.06,52.35.14,77.98.01,1.58,1.75,4.08,3.21,4.55,7.76,2.52,10.84,8.67,13.35,15.56,12.87,35.36,25.72,70.72,38.73,106.03,14.98,40.66,30.21,81.22,45.07,121.92,2.51,6.88,6.87,9.39,13.75,9.36,30.77-.17,61.55-.11,92.32-.47,2.38-.03,5.82-2.13,6.89-4.23,2.85-5.57,4.71-11.65,6.9-17.56,15.8-42.71,31.67-85.4,47.33-128.16,10.9-29.77,21.43-59.68,32.29-89.46,2.27-6.22,5.46-11.93,13.06-13.13,3.35-.53,4.3-2.56,4.27-6.04-.21-23.02-.31-46.05-.06-69.07Z"/>
        <path className="cls-1" d="M1148.8,284.58c-24.86-.29-49.71-.38-74.57-.46-11.42-.04-11.42.05-11.74,11.23-.18,6.55-2.78,9.12-9.36,9.28-3.87.09-7.76.42-11.6.15-2.29-.16-5.51-.66-6.46-2.17-.83-1.32.41-4.62,1.62-6.45,37.97-57.39,76.09-114.67,114.02-172.08,2.63-3.97,5.4-8.72,5.64-13.24.83-15.65.54-31.35.76-47.03.06-3.94-1.73-5.42-5.55-5.32-5.49.15-11,.04-16.5.04-69.68.02-139.36.03-209.05.05-8.4,0-8.44.01-8.45,8.3-.05,32.19-.08,64.37-.11,96.56,0,2,0,3.99,0,6.88,27.6,0,54.27,0,80.93,0,4.51,0,6.04-2.8,6.14-6.71.13-4.88.28-9.77.02-14.63-.25-4.71,1.55-6.6,6.33-6.49,7.53.17,15.07-.24,22.6-.14,2.28.03,4.55.91,6.83,1.4-.69,2.25-1.29,4.53-2.11,6.72-.42,1.12-1.18,2.14-1.86,3.14-12.14,17.83-24.28,35.67-36.46,53.48-27.35,40.01-54.83,79.93-81.92,120.11-2.92,4.33-4.77,10.11-5.07,15.34-.73,12.59-.17,25.25-.28,37.88-.04,4.91,2.13,6.97,7.01,6.97,10.8,0,21.59.35,32.39.35,65.21,0,130.41-.02,195.62-.09,9.99-.01,10.11-.25,10.1-10.34-.02-27.91,0-55.82-.06-83.73-.02-8.63-.1-8.9-8.89-9.01Z"/>
      </g>
      <g>
        <path className="cls-1" d="M342.31,365.04c-4.66-14.45-10.46-28.45-18.72-41.3-16.27-25.29-38.33-44.74-62.9-61.47-22.2-15.11-44.84-29.55-67.05-44.65-15.91-10.82-30.51-23.31-44.06-37.02-3.04-3.07-4.55-6.38-4.47-10.78.21-12.27.17-24.54.11-36.81-.14-31.95-.07-63.91-.72-95.85-.16-7.95-1.9-16.13-4.43-23.69-2.97-8.89-9.3-14.12-19.78-13.4-9.66.67-19.42.16-29.13.19-22.11.07-44.23.03-66.34.26C12.82.64.79,7.89.13,23.88-.04,27.92,0,31.98,0,36.02,0,147.97,0,259.93,0,371.88c0,14.81.1,29.64.06,44.45-.02,8.78,3.21,15.75,10.8,20.47,5.29,3.3,11.1,4.32,17.24,4.31,30.68-.03,61.37-.26,92.05.19,8.75.13,14.74-2.66,18.56-10.36.61-1.24,1.28-2.47,1.88-3.71,3.34-6.99,3.8-14.56,3.96-22.06.42-20.13.47-40.27.69-60.41.01-1.17.22-2.35.34-3.5.72.03.99-.03,1.16.07,19.72,10.94,40.91,17.72,62.87,22.37,5.69,1.21,5.74,1.83,5.81,7.62.19,15.72.47,31.45,1.38,47.14.46,7.87,4.46,14.49,10.5,19.74,4.78,4.16,10.55,2.82,15.98,2.86,19.57.15,39.13.07,58.7.08h15.8c-.73-2.04-1.18-3.55-1.8-4.98-5.51-12.74-11.07-25.47-16.55-38.23-.62-1.45-.85-3.07-1.25-4.62.38-.24.76-.48,1.14-.72,1.38,1.07,2.84,2.06,4.14,3.23,13.32,12.08,23.21,26.65,30.78,42.86,1.01,2.18,2.34,3.36,5.21,2.09-.42-1.22-.68-2.45-1.22-3.52-2.27-4.55-4.46-9.16-6.99-13.56-12.57-21.87-29.55-39.04-53.91-47.16-14.68-4.89-29.74-8.82-44.87-12.09-25.83-5.59-51.67-10.94-75.68-22.49-21.8-10.48-41.57-23.77-57.04-42.73-24.02-29.43-33.86-63.25-31.13-100.91,1.1-15.12,4.82-29.68,10.23-43.79.57-1.49,2.29-2.55,3.48-3.81.3,1.69.91,3.39.83,5.06-.51,12-1.88,24.01-1.6,35.99.42,18.28,4.71,35.76,14.18,51.68,11.51,19.39,28.23,33.22,47.71,43.88,21.87,11.96,45.48,19.42,69.3,26.36,16.09,4.7,32.23,9.42,47.96,15.19,24.08,8.83,44.76,22.62,59.27,44.44.51.77,1.18,1.44,1.77,2.16.37-.32.74-.63,1.11-.95-5.02-7.16-9.72-14.57-15.13-21.43-12.8-16.24-29.28-28.19-46.88-38.65-18.8-11.16-37.87-21.9-56.53-33.29-30.25-18.46-57.35-40.73-79.73-68.39-25.72-31.79-41.5-67.64-44.32-108.81-2.25-32.79,4.77-63.48,20.66-92.16,1.36-2.46,3.66-4.4,5.53-6.58.38.28.76.58,1.15.87-.06.54-.03,1.11-.17,1.63-2.74,10.02-6.18,19.92-8.14,30.1-10.73,55.67,5.58,103.12,44.81,143.16,23.94,24.45,51.48,44.42,80.37,62.58,19.21,12.07,38.39,24.15,56.02,38.53,19.84,16.17,35.92,35.41,47.63,58.15,10.18,19.77,15.77,41.04,18.56,62.97,1.48,11.69,1.66,23.53,2.59,35.29.08.99,1.31,1.88,2,2.82.78-.92,1.84-1.72,2.25-2.78.39-1.01.15-2.29.1-3.44-1.06-23.78-3.93-47.29-11.26-70.04Z"/>
        <path className="cls-1" d="M486.84,38.21c-.01-6.11-.33-12.27-1.16-18.33-.86-6.35-4.23-11.32-9.88-14.77-6.07-3.71-12.59-4.88-19.58-4.85-38.67.15-77.34.19-116.01.27-3.7,0-7.4,0-11.1,0-.11.26-.23.51-.34.77,2.67,2.3,5.53,4.41,7.99,6.92,13.91,14.2,22.84,31.31,28.72,50.12,6.96,22.27,8.83,45.16,7.54,68.3-1.29,23.11-6.14,45.38-17.43,65.89-8.93,16.22-21.19,29-37.93,37.41-9.61,4.83-9.2,2.65-4.69,13.13,10.1,23.49,20.62,46.79,30.88,70.21,15.26,34.87,30.32,69.83,45.78,104.61,2.69,6.06,6.62,11.65,10.54,17.05,2.24,3.09,5.23,5.89,9.72,5.87,18.17-.08,36.34.11,54.5-.21,9.52-.17,18.49-7.6,20.68-16.79,1.06-4.45,1.56-9.14,1.57-13.72.15-82.06.21-164.13.26-246.19.02-41.9.04-83.8-.06-125.7Z"/>
        <path className="cls-1" d="M218.98,216.25c11.28-.95,22.67-1.13,33.83-2.81,15.48-2.33,26.96-10.94,34.28-24.94,5.41-10.35,8.95-21.39,10.99-32.78,4.34-24.21,4.08-48.61,1.59-72.98-1.44-14.09-4.39-27.89-10.36-40.87-7.86-17.06-20.65-28.24-39.52-30.68-10.85-1.4-21.94-.92-32.92-1.29-2.17-.07-1.95,1.38-1.95,2.83.01,33.32.01,66.65.01,99.97h.02c0,33.09.03,66.19-.05,99.28,0,3.03.74,4.55,4.07,4.27Z"/>
      </g>
    </g>
  </g>
</svg>