<svg width="56" height="112" viewBox="0 0 56 112" fill="none" xmlns="http://www.w3.org/2000/svg">
<path d="M24.2875 13.2551C25.8607 9.33307 26.6474 7.37207 28 7.37207C29.3527 7.37207 30.1393 9.33307 31.7125 13.2551L31.7857 13.4377C32.6745 15.6534 33.1189 16.7613 34.0246 17.4347C34.9303 18.1081 36.1192 18.2145 38.497 18.4275L38.9269 18.466C42.8186 18.8145 44.7644 18.9888 45.1807 20.2267C45.5971 21.4647 44.152 22.7794 41.262 25.4088L40.2974 26.2863C38.8344 27.6174 38.1029 28.2829 37.7619 29.1551C37.6983 29.3178 37.6454 29.4845 37.6036 29.6542C37.3795 30.5635 37.5937 31.5289 38.0222 33.4599L38.1555 34.0609C38.9429 37.6096 39.3365 39.3839 38.6492 40.1493C38.3923 40.4352 38.0585 40.6412 37.6877 40.7423C36.6953 41.0131 35.2863 39.865 32.4684 37.5689C30.6181 36.0611 29.6929 35.3072 28.6307 35.1376C28.2129 35.0709 27.7871 35.0709 27.3693 35.1376C26.3071 35.3072 25.3819 36.0611 23.5316 37.5689C20.7137 39.865 19.3047 41.0131 18.3123 40.7423C17.9415 40.6412 17.6077 40.4352 17.3508 40.1493C16.6635 39.3839 17.0571 37.6096 17.8445 34.0609L17.9778 33.4599C18.4063 31.5289 18.6205 30.5635 18.3964 29.6542C18.3546 29.4845 18.3017 29.3178 18.2381 29.1551C17.8971 28.2829 17.1656 27.6174 15.7026 26.2863L14.7381 25.4088C11.848 22.7794 10.4029 21.4647 10.8193 20.2267C11.2356 18.9888 13.1815 18.8145 17.0731 18.466L17.503 18.4275C19.8808 18.2145 21.0697 18.1081 21.9754 17.4347C22.8811 16.7613 23.3255 15.6534 24.2143 13.4377L24.2875 13.2551Z" stroke="white" stroke-width="2.5"/>
<line x1="26.5" y1="110.5" x2="26.5" y2="52.5" stroke="#A9ADB0" stroke-width="3" stroke-linecap="round" stroke-dasharray="1 8"/>
</svg>
